<svg width="67" height="67" viewBox="0 0 67 67" fill="none" xmlns="http://www.w3.org/2000/svg">
<path d="M18.0518 14.4149V14.2488H32.9987C38.9036 14.2488 43.5722 16.0018 47.0045 19.5079C50.4736 22.977 52.2082 27.6087 52.2082 33.403C52.2082 39.0496 50.3814 43.7366 46.7277 47.4641C43.074 51.1547 38.4977 53 32.9987 53H18.0518V52.834H21.5394V14.4149H18.0518ZM32.5004 14.4149H27.2967V52.834H32.5558C36.8369 52.834 40.1215 51.0809 42.4097 47.5749C44.6979 44.0688 45.842 39.4556 45.842 33.7351C45.842 28.273 44.6425 23.6783 42.2436 19.9508C39.8816 16.2602 36.6339 14.4149 32.5004 14.4149Z" fill="#6E6D87"/>
<circle cx="33.5" cy="33.5" r="33.35" stroke="#6E6D87" stroke-width="0.3"/>
</svg>
